<?xml version="1.0" encoding="utf-8"?>
<!-- Generator: Adobe Illustrator 25.2.0, SVG Export Plug-In . SVG Version: 6.00 Build 0)  -->
<svg version="1.1" xmlns="http://www.w3.org/2000/svg" xmlns:xlink="http://www.w3.org/1999/xlink" x="0px" y="0px"
	 viewBox="0 0 597.5 129.51" style="enable-background:new 0 0 597.5 129.51;" xml:space="preserve">
<style type="text/css">
	.st0{fill:none;stroke:#030405;stroke-miterlimit:10;}
	.st1{fill:none;stroke:#030405;stroke-width:4;stroke-miterlimit:10;}
	.st2{fill:#030405;}
	.st3{fill:none;stroke:#030405;stroke-width:2;stroke-miterlimit:10;}
	.st4{fill:#FFFFFF;stroke:#030405;stroke-miterlimit:10;}
	.st5{fill:#FFFFFF;}
	.st6{fill:#34AC5C;}
	.st7{fill:#121412;}
	.st8{fill:#3F3F3E;}
	.st9{fill:#203020;}
</style>
<g id="Layer_1">
	<path class="st0" d="M-307.7,4529.51c0,0-56.8-0.78-78.73,53.78c-21.94,54.56,15.45,99.99,24.39,117s8.94,17.02,8.94,17.02
		s26.4,48.27-7.6,92.02c0,0,23.09,45.95,8.1,97.75c0,0,89.4-27.65,96.69-112.83c0,0,8.23-60.89-47.08-116.52
		S-376.32,4576.52-307.7,4529.51z"/>
	<path class="st1" d="M-625.14,4907.08c0,0-89.4-27.65-96.69-112.83c0,0-8.23-60.89,47.08-116.52
		c55.31-55.63,73.33-101.21,4.71-148.23"/>
	<path class="st1" d="M-670.04,4529.51c91.29,33.07,76.15,108.02,20.84,163.65c-13.83,13.91-22.19,28.39-26.96,42.3
		c-11.25,32.79-4.2,93.38,42.89,117.61"/>
	<path class="st0" d="M-625.14,4907.08"/>
	<path class="st0" d="M-617.04,4809.33"/>
	<path class="st1" d="M-670.04,4529.51c0,0,56.8-0.78,78.73,53.78c21.94,54.56-15.45,99.99-24.39,117s-8.94,17.02-8.94,17.02
		s-26.4,48.27,7.6,92.02"/>
	<path class="st0" d="M-392.48,4801.55h-194.9v0.52c-7.92,3.74-14.03,28.04-14.03,57.47s6.11,53.73,14.03,57.47v0.52h194.9
		c8.93,0,16.16-25.96,16.16-57.99C-376.32,4827.51-383.55,4801.55-392.48,4801.55z"/>
	<g>
		<g>
			<path class="st2" d="M709.59,4524.28c0,0-56.8-0.78-78.73,53.78s15.45,99.99,24.39,117c8.94,17.02,8.94,17.02,8.94,17.02
				s26.4,48.27-7.6,92.02c0,0,23.09,45.95,8.1,97.75c0,0,89.4-27.65,96.69-112.83c0,0,8.23-60.89-47.08-116.52
				C658.99,4616.88,640.97,4571.3,709.59,4524.28z"/>
			<path class="st2" d="M347.26,4524.28c0,0,56.8-0.78,78.73,53.78s-15.45,99.99-24.39,117s-8.94,17.02-8.94,17.02
				s-26.4,48.27,7.6,92.02c0,0-23.09,45.95-8.1,97.75c0,0-89.4-27.65-96.69-112.83c0,0-8.23-60.89,47.08-116.52
				C397.86,4616.88,415.88,4571.3,347.26,4524.28z"/>
		</g>
		<path class="st2" d="M624.81,4796.32h-194.9v0.52c-7.92,3.74-14.03,28.04-14.03,57.47s6.11,53.73,14.03,57.47v0.52h194.9
			c8.93,0,16.16-25.96,16.16-57.99S633.74,4796.32,624.81,4796.32z"/>
	</g>
	<circle class="st1" cx="-612.83" cy="4814.77" r="6.22"/>
	<circle class="st1" cx="-627.49" cy="4855.35" r="6.22"/>
	<circle class="st1" cx="-620.05" cy="4908.08" r="6.22"/>
	<g>
		<path class="st2" d="M-234.22,5409.22c0,0-56.8-0.78-78.73,53.78c-21.94,54.56,15.45,99.99,24.39,117
			c8.94,17.02,8.94,17.02,8.94,17.02s26.4,48.27-7.6,92.02c0,0,23.09,45.95,8.1,97.75c0,0,89.4-27.65,96.69-112.83
			c0,0,8.23-60.89-47.08-116.52S-302.84,5456.23-234.22,5409.22z"/>
		<path class="st2" d="M-596.56,5409.22c0,0,56.8-0.78,78.73,53.78c21.94,54.56-15.45,99.99-24.39,117
			c-8.94,17.02-8.94,17.02-8.94,17.02s-26.4,48.27,7.6,92.02c0,0-23.09,45.95-8.1,97.75c0,0-89.4-27.65-96.69-112.83
			c0,0-8.23-60.89,47.08-116.52S-527.93,5456.23-596.56,5409.22z"/>
	</g>
	<path class="st2" d="M1846.75,4760.62c0,0,7.46-56.31-44.14-84.52c-51.6-28.21-101.11,3.57-119.06,10.45s-17.95,6.88-17.95,6.88
		s-60.12,13.87-99.56-25.04c0,0-42.84,37.16-88.94,3.2c0,0,16.93,92.03,100.66,109.3c0,0,59.5,15.35,121.25-33.03
		S1808.14,4686.94,1846.75,4760.62z"/>
	<path class="st2" d="M1846.75,4406.16c0,0,7.46,56.31-44.14,84.52c-51.6,28.21-101.11-3.57-119.06-10.45s-17.95-6.88-17.95-6.88
		s-60.12-13.87-99.56,25.04c0,0-42.84-37.16-88.94-3.2c0,0,16.93-92.03,100.66-109.3c0,0,59.5-15.35,121.25,33.03
		C1760.75,4467.32,1808.14,4479.85,1846.75,4406.16z"/>
	<path class="st2" d="M-319,5681.26h-194.9v0.52c-7.92,3.74-14.03,28.04-14.03,57.47s6.11,53.73,14.03,57.47v0.52H-319
		c8.93,0,16.16-25.96,16.16-57.99C-302.84,5707.22-310.07,5681.26-319,5681.26z"/>
	<path class="st3" d="M1557.54,5741.62"/>
	<path class="st3" d="M1565.63,5643.87"/>
	<path class="st3" d="M1557.54,5741.62l-28.21-15.04c-11.05-5.89-21.1-13.51-29.76-22.56l-20.14-21.05l-4.91-13.97
		c-8.9-25.32-12.37-52.23-10.18-78.97l0.2-2.44l9.7-22.98c5.91-14,13.36-27.29,22.21-39.64l11.07-15.45l12.33-12.71
		c11.07-11.41,20.43-24.37,27.78-38.48l7.26-13.94l-0.02-1.32c-0.3-19.75-5.74-39.07-15.76-56.09l-0.76-1.29l-32.7-31.65
		l44.56,19.24l10.2,7.7c10.44,7.87,19.25,17.71,25.93,28.95l5.66,9.53l1.11,6.22c3.33,18.73,2.94,37.93-1.15,56.5l-2.58,11.72
		l-13.29,20.5c-6.12,9.45-11.26,19.5-15.32,30.01l-8.18,21.16l-0.35,3.82c-2.12,23.02,2.05,46.18,12.08,67.01l3.6,7.48"/>
	<g>
		<circle class="st2" cx="1557.54" cy="5741.62" r="4.35"/>
		<circle class="st4" cx="1557.54" cy="5741.62" r="2.84"/>
	</g>
	<g>
		<circle class="st2" cx="1479.54" cy="5682.62" r="4.35"/>
		<circle class="st4" cx="1479.54" cy="5682.62" r="2.84"/>
	</g>
	<g>
		<circle class="st2" cx="1464.54" cy="5588.62" r="4.35"/>
		<circle class="st4" cx="1464.54" cy="5588.62" r="2.84"/>
	</g>
	<g>
		<circle class="st2" cx="1508.54" cy="5507.62" r="4.35"/>
		<circle class="st4" cx="1508.54" cy="5507.62" r="2.84"/>
	</g>
	<g>
		<circle class="st2" cx="1554.54" cy="5444.62" r="4.35"/>
		<circle class="st4" cx="1554.54" cy="5444.62" r="2.84"/>
	</g>
	<g>
		<circle class="st2" cx="1537.54" cy="5385.62" r="4.35"/>
		<circle class="st4" cx="1537.54" cy="5385.62" r="2.84"/>
	</g>
	<g>
		<circle class="st2" cx="1505.54" cy="5354.62" r="4.35"/>
		<circle class="st4" cx="1505.54" cy="5354.62" r="2.84"/>
	</g>
	<g>
		<circle class="st2" cx="1549.54" cy="5373.62" r="4.35"/>
		<circle class="st4" cx="1549.54" cy="5373.62" r="2.84"/>
	</g>
	<g>
		<circle class="st2" cx="1590.54" cy="5417.62" r="4.35"/>
		<circle class="st4" cx="1590.54" cy="5417.62" r="2.84"/>
	</g>
	<g>
		<circle class="st2" cx="1588.54" cy="5494.62" r="4.35"/>
		<circle class="st4" cx="1588.54" cy="5494.62" r="2.84"/>
	</g>
	<g>
		<circle class="st2" cx="1552.54" cy="5564.62" r="4.35"/>
		<circle class="st4" cx="1552.54" cy="5564.62" r="2.84"/>
	</g>
	<g>
		<circle class="st2" cx="1568.54" cy="5644.62" r="4.35"/>
		<circle class="st4" cx="1568.54" cy="5644.62" r="2.84"/>
	</g>
	<g>
		<path class="st3" d="M397.79,5741.62"/>
		<path class="st3" d="M405.89,5643.87"/>
		<polyline class="st3" points="397.79,5741.62 352.9,5717.68 319.69,5682.96 301.27,5630.59 304.79,5587.58 323.39,5543.54 
			347.77,5509.52 376.81,5479.6 395.14,5444.4 395.66,5414.95 378.6,5385.7 355.9,5364.05 390.46,5373.29 416.48,5392.91 
			432.25,5419.46 438.41,5454.04 429.62,5493.9 407.13,5528.61 392.83,5565.57 389.24,5604.56 408.16,5643.87 		"/>
		<g>
			<circle class="st2" cx="397.79" cy="5741.62" r="4.35"/>
			<circle class="st4" cx="397.79" cy="5741.62" r="2.84"/>
		</g>
		<g>
			<circle class="st2" cx="353.79" cy="5717.62" r="4.35"/>
			<circle class="st4" cx="353.79" cy="5717.62" r="2.84"/>
		</g>
		<g>
			<circle class="st2" cx="319.79" cy="5682.62" r="4.35"/>
			<circle class="st4" cx="319.79" cy="5682.62" r="2.84"/>
		</g>
		<g>
			<circle class="st2" cx="301.79" cy="5631.62" r="4.35"/>
			<circle class="st4" cx="301.79" cy="5631.62" r="2.84"/>
		</g>
		<g>
			<circle class="st2" cx="304.79" cy="5588.62" r="4.35"/>
			<circle class="st4" cx="304.79" cy="5588.62" r="2.84"/>
		</g>
		<g>
			<circle class="st2" cx="323.79" cy="5542.62" r="4.35"/>
			<circle class="st4" cx="323.79" cy="5542.62" r="2.84"/>
		</g>
		<g>
			<circle class="st2" cx="348.79" cy="5507.62" r="4.35"/>
			<circle class="st4" cx="348.79" cy="5507.62" r="2.84"/>
		</g>
		<g>
			<circle class="st2" cx="376.79" cy="5478.62" r="4.35"/>
			<circle class="st4" cx="376.79" cy="5478.62" r="2.84"/>
		</g>
		<g>
			<circle class="st2" cx="394.79" cy="5444.62" r="4.35"/>
			<circle class="st4" cx="394.79" cy="5444.62" r="2.84"/>
		</g>
		<g>
			<circle class="st2" cx="394.79" cy="5415.62" r="4.35"/>
			<circle class="st4" cx="394.79" cy="5415.62" r="2.84"/>
		</g>
		<g>
			<circle class="st2" cx="377.79" cy="5385.62" r="4.35"/>
			<circle class="st4" cx="377.79" cy="5385.62" r="2.84"/>
		</g>
		<g>
			<circle class="st2" cx="355.79" cy="5364.62" r="4.35"/>
			<circle class="st4" cx="355.79" cy="5364.62" r="2.84"/>
		</g>
		<g>
			<circle class="st2" cx="389.79" cy="5373.62" r="4.35"/>
			<circle class="st4" cx="389.79" cy="5373.62" r="2.84"/>
		</g>
		<g>
			<circle class="st2" cx="415.79" cy="5392.62" r="4.35"/>
			<circle class="st4" cx="415.79" cy="5392.62" r="2.84"/>
		</g>
		<g>
			<circle class="st2" cx="430.79" cy="5417.62" r="4.35"/>
			<circle class="st4" cx="430.79" cy="5417.62" r="2.84"/>
		</g>
		<g>
			<circle class="st2" cx="437.79" cy="5455.62" r="4.35"/>
			<circle class="st4" cx="437.79" cy="5455.62" r="2.84"/>
		</g>
		<g>
			<circle class="st2" cx="428.79" cy="5494.62" r="4.35"/>
			<circle class="st4" cx="428.79" cy="5494.62" r="2.84"/>
		</g>
		<g>
			<circle class="st2" cx="407.79" cy="5527.62" r="4.35"/>
			<circle class="st4" cx="407.79" cy="5527.62" r="2.84"/>
		</g>
		<g>
			<circle class="st2" cx="392.79" cy="5564.62" r="4.35"/>
			<circle class="st4" cx="392.79" cy="5564.62" r="2.84"/>
		</g>
		<g>
			<circle class="st2" cx="388.79" cy="5603.62" r="4.35"/>
			<circle class="st4" cx="388.79" cy="5603.62" r="2.84"/>
		</g>
		<g>
			<circle class="st2" cx="408.79" cy="5644.62" r="4.35"/>
			<circle class="st4" cx="408.79" cy="5644.62" r="2.84"/>
		</g>
	</g>
	<g>
		<path class="st3" d="M681.79,5741.62"/>
		<path class="st3" d="M673.7,5643.87"/>
		<polyline class="st3" points="681.79,5741.62 726.69,5717.68 759.9,5682.96 778.31,5630.59 774.79,5587.58 756.2,5543.54 
			731.81,5509.52 702.78,5479.6 684.44,5444.4 683.93,5414.95 700.98,5385.7 723.68,5364.05 689.12,5373.29 663.11,5392.91 
			647.33,5419.46 641.18,5454.04 649.96,5493.9 672.46,5528.61 686.75,5565.57 690.35,5604.56 671.43,5643.87 		"/>
		<g>
			<circle class="st2" cx="681.79" cy="5741.62" r="4.35"/>
			<circle class="st4" cx="681.79" cy="5741.62" r="2.84"/>
		</g>
		<g>
			<circle class="st2" cx="725.79" cy="5717.62" r="4.35"/>
			<circle class="st4" cx="725.79" cy="5717.62" r="2.84"/>
		</g>
		<g>
			<circle class="st2" cx="759.79" cy="5682.62" r="4.35"/>
			<circle class="st4" cx="759.79" cy="5682.62" r="2.84"/>
		</g>
		<g>
			<circle class="st2" cx="777.79" cy="5631.62" r="4.35"/>
			<circle class="st4" cx="777.79" cy="5631.62" r="2.84"/>
		</g>
		<g>
			<circle class="st2" cx="774.79" cy="5588.62" r="4.35"/>
			<circle class="st4" cx="774.79" cy="5588.62" r="2.84"/>
		</g>
		<g>
			<circle class="st2" cx="755.79" cy="5542.62" r="4.35"/>
			<circle class="st4" cx="755.79" cy="5542.62" r="2.84"/>
		</g>
		<g>
			<circle class="st2" cx="730.79" cy="5507.62" r="4.35"/>
			<circle class="st4" cx="730.79" cy="5507.62" r="2.84"/>
		</g>
		<g>
			<circle class="st2" cx="702.79" cy="5478.62" r="4.35"/>
			<circle class="st4" cx="702.79" cy="5478.62" r="2.84"/>
		</g>
		<g>
			<circle class="st2" cx="684.79" cy="5444.62" r="4.35"/>
			<circle class="st4" cx="684.79" cy="5444.62" r="2.84"/>
		</g>
		<g>
			<circle class="st2" cx="684.79" cy="5415.62" r="4.35"/>
			<circle class="st4" cx="684.79" cy="5415.62" r="2.84"/>
		</g>
		<g>
			<circle class="st2" cx="701.79" cy="5385.62" r="4.35"/>
			<circle class="st4" cx="701.79" cy="5385.62" r="2.84"/>
		</g>
		<g>
			<circle class="st2" cx="723.79" cy="5364.62" r="4.35"/>
			<circle class="st4" cx="723.79" cy="5364.62" r="2.84"/>
		</g>
		<g>
			<circle class="st2" cx="689.79" cy="5373.62" r="4.35"/>
			<circle class="st4" cx="689.79" cy="5373.62" r="2.84"/>
		</g>
		<g>
			<circle class="st2" cx="663.79" cy="5392.62" r="4.35"/>
			<circle class="st4" cx="663.79" cy="5392.62" r="2.84"/>
		</g>
		<g>
			<circle class="st2" cx="648.79" cy="5417.62" r="4.35"/>
			<circle class="st4" cx="648.79" cy="5417.62" r="2.84"/>
		</g>
		<g>
			<circle class="st2" cx="641.79" cy="5455.62" r="4.35"/>
			<circle class="st4" cx="641.79" cy="5455.62" r="2.84"/>
		</g>
		<g>
			<circle class="st2" cx="650.79" cy="5494.62" r="4.35"/>
			<circle class="st4" cx="650.79" cy="5494.62" r="2.84"/>
		</g>
		<g>
			<circle class="st2" cx="671.79" cy="5527.62" r="4.35"/>
			<circle class="st4" cx="671.79" cy="5527.62" r="2.84"/>
		</g>
		<g>
			<circle class="st2" cx="686.79" cy="5564.62" r="4.35"/>
			<circle class="st4" cx="686.79" cy="5564.62" r="2.84"/>
		</g>
		<g>
			<circle class="st2" cx="690.79" cy="5603.62" r="4.35"/>
			<circle class="st4" cx="690.79" cy="5603.62" r="2.84"/>
		</g>
		<g>
			<circle class="st2" cx="670.79" cy="5644.62" r="4.35"/>
			<circle class="st4" cx="670.79" cy="5644.62" r="2.84"/>
		</g>
	</g>
	<text transform="matrix(1 0 0 1 1458.1801 4655.291)" style="font-family:'NovaSlim'; font-size:166.2921px;">OGUZLY</text>
	<g>
		<path class="st5" d="M0,85.49V40.83C0,29.08,3.65,19.47,10.96,12C18.65,4.15,28.66,0.23,41,0.23S63.36,4.15,71.05,12
			c7.31,7.42,10.96,17.02,10.96,28.83v44.66c0,11.75-3.65,21.36-10.96,28.83c-7.69,7.85-17.7,11.77-30.04,11.77
			s-22.36-3.92-30.04-11.77C3.65,106.84,0,97.23,0,85.49z M16.24,91.17c0,7.25,1.95,13.13,5.85,17.62
			c4.82,5.58,11.12,8.36,18.92,8.36s14.1-2.79,18.92-8.36c3.9-4.49,5.85-10.37,5.85-17.62V35.14c0-7.25-1.95-13.13-5.85-17.62
			C55.11,11.95,48.8,9.16,41,9.16s-14.1,2.79-18.92,8.36c-3.9,4.49-5.85,10.37-5.85,17.62V91.17z"/>
		<path class="st5" d="M194.5,58.69v26.8c0,11.75-3.65,21.36-10.96,28.83c-7.69,7.85-17.7,11.77-30.04,11.77
			s-22.36-3.92-30.04-11.77c-7.31-7.47-10.96-17.08-10.96-28.83V40.83c0-11.75,3.65-21.35,10.96-28.83
			c7.69-7.85,17.7-11.77,30.04-11.77c12.77,0,22.8,3.93,30.08,11.77c7.28,7.85,10.92,16.92,10.92,27.2l-15.43,7.31h-0.81V35.14
			c0-7.15-1.95-13.02-5.85-17.62c-4.71-5.57-11.02-8.36-18.92-8.36c-7.79,0-14.1,2.79-18.92,8.36c-3.9,4.44-5.85,10.31-5.85,17.62
			v56.03c0,7.2,1.95,13.07,5.85,17.62c4.82,5.58,11.12,8.36,18.92,8.36s14.1-2.79,18.92-8.36c3.9-4.49,5.85-9.83,5.85-16V67.62
			h-26.88v-0.81l3.82-8.12H194.5z"/>
		<path class="st5" d="M344.43,126.46v-0.82L401.35,9.4h-56.11V8.56l3.93-8.36h74.99v0.71l-57.26,116.35h58.03v0.84l-3.93,8.36
			H344.43z"/>
		<path class="st5" d="M451.34,126.46V7.91l15.43-7.31h0.81v116.92h55.62v0.81l-3.82,8.12H451.34z"/>
		<path class="st5" d="M548.37,129.71V87.16c-8.5-1.41-15.81-5.12-21.92-11.12c-7.31-7.2-10.96-16.81-10.96-28.83V7.91l15.43-7.31
			h0.81v51.64c0,7.25,1.95,13.13,5.85,17.62c4.82,5.58,11.12,8.36,18.92,8.36c8.23,0,14.53-2.79,18.92-8.36
			c3.9-4.98,5.85-10.85,5.85-17.62V7.91l15.43-7.31h0.81v46.61c0,11.69-3.65,21.3-10.96,28.83c-5.9,6.06-13.21,9.77-21.92,11.12
			v35.24l-15.43,7.31H548.37z"/>
		<g>
			<g>
				<path class="st5" d="M323,0.6c0,0-14.52-0.25-20.13,17.46c-5.61,17.71,3.95,32.46,6.24,37.99c2.29,5.52,2.29,5.52,2.29,5.52
					s6.75,15.67-1.94,29.87c0,0,5.9,14.92,2.07,31.74c0,0,22.86-8.98,24.72-36.63c0,0,2.11-19.77-12.04-37.83
					C310.06,30.67,305.45,15.87,323,0.6z"/>
				<path class="st5" d="M230.34,0.6c0,0,14.52-0.25,20.13,17.46s-3.95,32.46-6.24,37.99c-2.29,5.52-2.29,5.52-2.29,5.52
					s-6.75,15.67,1.94,29.87c0,0-5.9,14.92-2.07,31.74c0,0-22.86-8.98-24.72-36.63c0,0-2.11-19.77,12.04-37.83
					C243.28,30.67,247.89,15.87,230.34,0.6z"/>
			</g>
			<path class="st6" d="M301.32,88.92h-49.84v0.17c-2.02,1.21-3.59,9.1-3.59,18.66s1.56,17.44,3.59,18.66v0.17h49.84
				c2.28,0,4.13-8.43,4.13-18.83S303.6,88.92,301.32,88.92z"/>
		</g>
	</g>
	<rect x="4722.32" y="-422.55" class="st7" width="1000" height="1000"/>
	<path class="st5" d="M4942.45,85.28V40.63c0-11.75,3.65-21.35,10.96-28.83c7.69-7.85,17.7-11.77,30.04-11.77
		s22.36,3.93,30.04,11.77c7.31,7.42,10.96,17.02,10.96,28.83v44.66c0,11.75-3.65,21.36-10.96,28.83
		c-7.69,7.85-17.7,11.77-30.04,11.77s-22.36-3.92-30.04-11.77C4946.11,106.64,4942.45,97.03,4942.45,85.28z M4958.69,90.97
		c0,7.25,1.95,13.13,5.85,17.62c4.82,5.58,11.12,8.36,18.92,8.36s14.1-2.79,18.92-8.36c3.9-4.49,5.85-10.37,5.85-17.62V34.94
		c0-7.25-1.95-13.13-5.85-17.62c-4.82-5.57-11.12-8.36-18.92-8.36s-14.1,2.79-18.92,8.36c-3.9,4.49-5.85,10.37-5.85,17.62V90.97z"/>
	<path class="st5" d="M5136.95,58.49v26.8c0,11.75-3.65,21.36-10.96,28.83c-7.69,7.85-17.7,11.77-30.04,11.77
		s-22.36-3.92-30.04-11.77c-7.31-7.47-10.96-17.08-10.96-28.83V40.63c0-11.75,3.65-21.35,10.96-28.83
		c7.69-7.85,17.7-11.77,30.04-11.77c12.77,0,22.8,3.93,30.08,11.77c7.28,7.85,10.92,16.92,10.92,27.2l-15.43,7.31h-0.81V34.94
		c0-7.15-1.95-13.02-5.85-17.62c-4.71-5.57-11.02-8.36-18.92-8.36c-7.79,0-14.1,2.79-18.92,8.36c-3.9,4.44-5.85,10.31-5.85,17.62
		v56.03c0,7.2,1.95,13.07,5.85,17.62c4.82,5.58,11.12,8.36,18.92,8.36s14.1-2.79,18.92-8.36c3.9-4.49,5.85-9.83,5.85-16V67.42
		h-26.88v-0.81l3.82-8.12H5136.95z"/>
	<path class="st5" d="M5286.88,126.26v-0.82L5343.8,9.2h-56.11V8.36l3.93-8.36h74.99v0.71l-57.26,116.35h58.03v0.84l-3.93,8.36
		H5286.88z"/>
	<path class="st5" d="M5393.79,126.26V7.71l15.43-7.31h0.81v116.92h55.62v0.81l-3.82,8.12H5393.79z"/>
	<path class="st5" d="M5490.82,129.51V86.96c-8.5-1.41-15.81-5.12-21.92-11.12c-7.31-7.2-10.96-16.81-10.96-28.83V7.71l15.43-7.31
		h0.81v51.64c0,7.25,1.95,13.13,5.85,17.62c4.82,5.58,11.12,8.36,18.92,8.36c8.23,0,14.53-2.79,18.92-8.36
		c3.9-4.98,5.85-10.85,5.85-17.62V7.71l15.43-7.31h0.81v46.61c0,11.69-3.65,21.3-10.96,28.83c-5.9,6.06-13.21,9.77-21.92,11.12
		v35.24l-15.43,7.31H5490.82z"/>
	<g>
		<g>
			<path class="st5" d="M5265.45,0.4c0,0-14.52-0.25-20.13,17.46s3.95,32.46,6.24,37.99s2.29,5.52,2.29,5.52s6.75,15.67-1.94,29.87
				c0,0,5.9,14.92,2.07,31.74c0,0,22.86-8.98,24.72-36.63c0,0,2.11-19.77-12.04-37.83C5252.51,30.46,5247.9,15.67,5265.45,0.4z"/>
			<path class="st5" d="M5172.8,0.4c0,0,14.52-0.25,20.13,17.46s-3.95,32.46-6.24,37.99s-2.29,5.52-2.29,5.52
				s-6.75,15.67,1.94,29.87c0,0-5.9,14.92-2.07,31.74c0,0-22.86-8.98-24.72-36.63c0,0-2.11-19.77,12.04-37.83
				C5185.74,30.46,5190.34,15.67,5172.8,0.4z"/>
		</g>
		<path class="st6" d="M5243.77,88.72h-49.84v0.17c-2.02,1.21-3.59,9.1-3.59,18.66s1.56,17.44,3.59,18.66v0.17h49.84
			c2.28,0,4.13-8.43,4.13-18.83S5246.05,88.72,5243.77,88.72z"/>
	</g>
	<rect x="5595.61" y="4106.48" class="st7" width="1000" height="1000"/>
	<path class="st5" d="M5815.74,4614.32v-44.66c0-11.75,3.65-21.35,10.96-28.83c7.69-7.85,17.7-11.77,30.04-11.77
		s22.36,3.93,30.04,11.77c7.31,7.42,10.96,17.02,10.96,28.83v44.66c0,11.75-3.65,21.36-10.96,28.83
		c-7.69,7.85-17.7,11.77-30.04,11.77s-22.36-3.92-30.04-11.77C5819.4,4635.67,5815.74,4626.06,5815.74,4614.32z M5831.98,4620
		c0,7.25,1.95,13.13,5.85,17.62c4.82,5.58,11.12,8.36,18.92,8.36s14.1-2.79,18.92-8.36c3.9-4.49,5.85-10.37,5.85-17.62v-56.03
		c0-7.25-1.95-13.13-5.85-17.62c-4.82-5.57-11.12-8.36-18.92-8.36s-14.1,2.79-18.92,8.36c-3.9,4.49-5.85,10.37-5.85,17.62V4620z"/>
	<path class="st5" d="M6010.24,4587.52v26.8c0,11.75-3.65,21.36-10.96,28.83c-7.69,7.85-17.7,11.77-30.04,11.77
		s-22.36-3.92-30.04-11.77c-7.31-7.47-10.96-17.08-10.96-28.83v-44.66c0-11.75,3.65-21.35,10.96-28.83
		c7.69-7.85,17.7-11.77,30.04-11.77c12.77,0,22.8,3.93,30.08,11.77c7.28,7.85,10.92,16.92,10.92,27.2l-15.43,7.31H5994v-11.37
		c0-7.15-1.95-13.02-5.85-17.62c-4.71-5.57-11.02-8.36-18.92-8.36c-7.79,0-14.1,2.79-18.92,8.36c-3.9,4.44-5.85,10.31-5.85,17.62
		V4620c0,7.2,1.95,13.07,5.85,17.62c4.82,5.58,11.12,8.36,18.92,8.36s14.1-2.79,18.92-8.36c3.9-4.49,5.85-9.83,5.85-16v-25.17
		h-26.88v-0.81l3.82-8.12H6010.24z"/>
	<path class="st5" d="M6160.17,4655.29v-0.82l56.92-116.24h-56.11v-0.84l3.93-8.36h74.99v0.71l-57.26,116.35h58.03v0.84l-3.93,8.36
		H6160.17z"/>
	<path class="st5" d="M6267.08,4655.29v-118.55l15.43-7.31h0.81v116.92h55.62v0.81l-3.82,8.12H6267.08z"/>
	<path class="st5" d="M6364.11,4658.54v-42.55c-8.5-1.41-15.81-5.12-21.92-11.12c-7.31-7.2-10.96-16.81-10.96-28.83v-39.3
		l15.43-7.31h0.81v51.64c0,7.25,1.95,13.13,5.85,17.62c4.82,5.58,11.12,8.36,18.92,8.36c8.23,0,14.53-2.79,18.92-8.36
		c3.9-4.98,5.85-10.85,5.85-17.62v-44.33l15.43-7.31h0.81v46.61c0,11.69-3.65,21.3-10.96,28.83c-5.9,6.06-13.21,9.77-21.92,11.12
		v35.24l-15.43,7.31H6364.11z"/>
	<g>
		<g>
			<path class="st5" d="M6138.74,4529.44c0,0-14.52-0.25-20.13,17.46c-5.61,17.71,3.95,32.46,6.24,37.99
				c2.29,5.52,2.29,5.52,2.29,5.52s6.75,15.67-1.94,29.87c0,0,5.9,14.92,2.07,31.74c0,0,22.86-8.98,24.72-36.63
				c0,0,2.11-19.77-12.04-37.83C6125.8,4559.5,6121.19,4544.7,6138.74,4529.44z"/>
			<path class="st5" d="M6046.09,4529.44c0,0,14.52-0.25,20.13,17.46c5.61,17.71-3.95,32.46-6.24,37.99
				c-2.29,5.52-2.29,5.52-2.29,5.52s-6.75,15.67,1.94,29.87c0,0-5.9,14.92-2.07,31.74c0,0-22.86-8.98-24.72-36.63
				c0,0-2.11-19.77,12.04-37.83C6059.03,4559.5,6063.63,4544.7,6046.09,4529.44z"/>
		</g>
		<path class="st6" d="M6117.06,4617.75h-49.84v0.17c-2.02,1.21-3.59,9.1-3.59,18.66s1.56,17.44,3.59,18.66v0.17h49.84
			c2.28,0,4.13-8.43,4.13-18.83S6119.34,4617.75,6117.06,4617.75z"/>
	</g>
	<rect x="4520.26" y="4106.48" class="st8" width="1000" height="1000"/>
	<path class="st5" d="M4740.39,4614.32v-44.66c0-11.75,3.65-21.35,10.96-28.83c7.69-7.85,17.7-11.77,30.04-11.77
		s22.36,3.93,30.04,11.77c7.31,7.42,10.96,17.02,10.96,28.83v44.66c0,11.75-3.65,21.36-10.96,28.83
		c-7.69,7.85-17.7,11.77-30.04,11.77s-22.36-3.92-30.04-11.77C4744.04,4635.67,4740.39,4626.06,4740.39,4614.32z M4756.63,4620
		c0,7.25,1.95,13.13,5.85,17.62c4.82,5.58,11.12,8.36,18.92,8.36s14.1-2.79,18.92-8.36c3.9-4.49,5.85-10.37,5.85-17.62v-56.03
		c0-7.25-1.95-13.13-5.85-17.62c-4.82-5.57-11.12-8.36-18.92-8.36s-14.1,2.79-18.92,8.36c-3.9,4.49-5.85,10.37-5.85,17.62V4620z"/>
	<path class="st5" d="M4934.89,4587.52v26.8c0,11.75-3.65,21.36-10.96,28.83c-7.69,7.85-17.7,11.77-30.04,11.77
		s-22.36-3.92-30.04-11.77c-7.31-7.47-10.96-17.08-10.96-28.83v-44.66c0-11.75,3.65-21.35,10.96-28.83
		c7.69-7.85,17.7-11.77,30.04-11.77c12.77,0,22.8,3.93,30.08,11.77c7.28,7.85,10.92,16.92,10.92,27.2l-15.43,7.31h-0.81v-11.37
		c0-7.15-1.95-13.02-5.85-17.62c-4.71-5.57-11.02-8.36-18.92-8.36c-7.79,0-14.1,2.79-18.92,8.36c-3.9,4.44-5.85,10.31-5.85,17.62
		V4620c0,7.2,1.95,13.07,5.85,17.62c4.82,5.58,11.12,8.36,18.92,8.36s14.1-2.79,18.92-8.36c3.9-4.49,5.85-9.83,5.85-16v-25.17
		h-26.88v-0.81l3.82-8.12H4934.89z"/>
	<path class="st5" d="M5084.82,4655.29v-0.82l56.92-116.24h-56.11v-0.84l3.93-8.36h74.99v0.71l-57.26,116.35h58.03v0.84l-3.93,8.36
		H5084.82z"/>
	<path class="st5" d="M5191.73,4655.29v-118.55l15.43-7.31h0.81v116.92h55.62v0.81l-3.82,8.12H5191.73z"/>
	<path class="st5" d="M5288.76,4658.54v-42.55c-8.5-1.41-15.81-5.12-21.92-11.12c-7.31-7.2-10.96-16.81-10.96-28.83v-39.3
		l15.43-7.31h0.81v51.64c0,7.25,1.95,13.13,5.85,17.62c4.82,5.58,11.12,8.36,18.92,8.36c8.23,0,14.53-2.79,18.92-8.36
		c3.9-4.98,5.85-10.85,5.85-17.62v-44.33l15.43-7.31h0.81v46.61c0,11.69-3.65,21.3-10.96,28.83c-5.9,6.06-13.21,9.77-21.92,11.12
		v35.24l-15.43,7.31H5288.76z"/>
	<g>
		<g>
			<path class="st5" d="M5063.39,4529.44c0,0-14.52-0.25-20.13,17.46c-5.61,17.71,3.95,32.46,6.24,37.99s2.29,5.52,2.29,5.52
				s6.75,15.67-1.94,29.87c0,0,5.9,14.92,2.07,31.74c0,0,22.86-8.98,24.72-36.63c0,0,2.11-19.77-12.04-37.83
				C5050.45,4559.5,5045.84,4544.7,5063.39,4529.44z"/>
			<path class="st5" d="M4970.73,4529.44c0,0,14.52-0.25,20.13,17.46c5.61,17.71-3.95,32.46-6.24,37.99
				c-2.29,5.52-2.29,5.52-2.29,5.52s-6.75,15.67,1.94,29.87c0,0-5.9,14.92-2.07,31.74c0,0-22.86-8.98-24.72-36.63
				c0,0-2.11-19.77,12.04-37.83C4983.67,4559.5,4988.28,4544.7,4970.73,4529.44z"/>
		</g>
		<path class="st6" d="M5041.71,4617.75h-49.84v0.17c-2.02,1.21-3.59,9.1-3.59,18.66s1.56,17.44,3.59,18.66v0.17h49.84
			c2.28,0,4.13-8.43,4.13-18.83S5043.99,4617.75,5041.71,4617.75z"/>
	</g>
	<path class="st8" d="M-800.13,85.28V40.63c0-11.75,3.65-21.35,10.96-28.83c7.69-7.85,17.7-11.77,30.04-11.77
		s22.36,3.93,30.04,11.77c7.31,7.42,10.96,17.02,10.96,28.83v44.66c0,11.75-3.65,21.36-10.96,28.83
		c-7.69,7.85-17.7,11.77-30.04,11.77s-22.36-3.92-30.04-11.77C-796.47,106.64-800.13,97.03-800.13,85.28z M-783.89,90.97
		c0,7.25,1.95,13.13,5.85,17.62c4.82,5.58,11.12,8.36,18.92,8.36s14.1-2.79,18.92-8.36c3.9-4.49,5.85-10.37,5.85-17.62V34.94
		c0-7.25-1.95-13.13-5.85-17.62c-4.82-5.57-11.12-8.36-18.92-8.36s-14.1,2.79-18.92,8.36c-3.9,4.49-5.85,10.37-5.85,17.62V90.97z"/>
	<path class="st8" d="M-605.63,58.49v26.8c0,11.75-3.65,21.36-10.96,28.83c-7.69,7.85-17.7,11.77-30.04,11.77
		s-22.36-3.92-30.04-11.77c-7.31-7.47-10.96-17.08-10.96-28.83V40.63c0-11.75,3.65-21.35,10.96-28.83
		c7.69-7.85,17.7-11.77,30.04-11.77c12.77,0,22.8,3.93,30.08,11.77c7.28,7.85,10.92,16.92,10.92,27.2l-15.43,7.31h-0.81V34.94
		c0-7.15-1.95-13.02-5.85-17.62c-4.71-5.57-11.02-8.36-18.92-8.36c-7.79,0-14.1,2.79-18.92,8.36c-3.9,4.44-5.85,10.31-5.85,17.62
		v56.03c0,7.2,1.95,13.07,5.85,17.62c4.82,5.58,11.12,8.36,18.92,8.36s14.1-2.79,18.92-8.36c3.9-4.49,5.85-9.83,5.85-16V67.42
		h-26.88v-0.81l3.82-8.12H-605.63z"/>
	<path class="st8" d="M-455.7,126.26v-0.82L-398.78,9.2h-56.11V8.36l3.93-8.36h74.99v0.71l-57.26,116.35h58.03v0.84l-3.93,8.36
		H-455.7z"/>
	<path class="st8" d="M-348.79,126.26V7.71l15.43-7.31h0.81v116.92h55.62v0.81l-3.82,8.12H-348.79z"/>
	<path class="st8" d="M-251.76,129.51V86.96c-8.5-1.41-15.81-5.12-21.92-11.12c-7.31-7.2-10.96-16.81-10.96-28.83V7.71l15.43-7.31
		h0.81v51.64c0,7.25,1.95,13.13,5.85,17.62c4.82,5.58,11.12,8.36,18.92,8.36c8.23,0,14.53-2.79,18.92-8.36
		c3.9-4.98,5.85-10.85,5.85-17.62V7.71l15.43-7.31h0.81v46.61c0,11.69-3.65,21.3-10.96,28.83c-5.9,6.06-13.21,9.77-21.92,11.12
		v35.24l-15.43,7.31H-251.76z"/>
	<g>
		<g>
			<path class="st8" d="M-477.13,0.4c0,0-14.52-0.25-20.13,17.46c-5.61,17.71,3.95,32.46,6.24,37.99s2.29,5.52,2.29,5.52
				s6.75,15.67-1.94,29.87c0,0,5.9,14.92,2.07,31.74c0,0,22.86-8.98,24.72-36.63c0,0,2.11-19.77-12.04-37.83
				C-490.07,30.46-494.68,15.67-477.13,0.4z"/>
			<path class="st8" d="M-569.79,0.4c0,0,14.52-0.25,20.13,17.46c5.61,17.71-3.95,32.46-6.24,37.99s-2.29,5.52-2.29,5.52
				s-6.75,15.67,1.94,29.87c0,0-5.9,14.92-2.07,31.74c0,0-22.86-8.98-24.72-36.63c0,0-2.11-19.77,12.04-37.83
				C-556.85,30.46-552.24,15.67-569.79,0.4z"/>
		</g>
		<path class="st6" d="M-498.81,88.72h-49.84v0.17c-2.02,1.21-3.59,9.1-3.59,18.66s1.56,17.44,3.59,18.66v0.17h49.84
			c2.28,0,4.13-8.43,4.13-18.83S-496.53,88.72-498.81,88.72z"/>
	</g>
	<path class="st8" d="M3867.1,85.28V40.63c0-11.75,3.65-21.35,10.96-28.83c7.69-7.85,17.7-11.77,30.04-11.77s22.36,3.93,30.04,11.77
		c7.31,7.42,10.96,17.02,10.96,28.83v44.66c0,11.75-3.65,21.36-10.96,28.83c-7.69,7.85-17.7,11.77-30.04,11.77
		s-22.36-3.92-30.04-11.77C3870.75,106.64,3867.1,97.03,3867.1,85.28z M3883.34,90.97c0,7.25,1.95,13.13,5.85,17.62
		c4.82,5.58,11.12,8.36,18.92,8.36s14.1-2.79,18.92-8.36c3.9-4.49,5.85-10.37,5.85-17.62V34.94c0-7.25-1.95-13.13-5.85-17.62
		c-4.82-5.57-11.12-8.36-18.92-8.36s-14.1,2.79-18.92,8.36c-3.9,4.49-5.85,10.37-5.85,17.62V90.97z"/>
	<path class="st8" d="M4061.59,58.49v26.8c0,11.75-3.65,21.36-10.96,28.83c-7.69,7.85-17.7,11.77-30.04,11.77
		s-22.36-3.92-30.04-11.77c-7.31-7.47-10.96-17.08-10.96-28.83V40.63c0-11.75,3.65-21.35,10.96-28.83
		c7.69-7.85,17.7-11.77,30.04-11.77c12.77,0,22.8,3.93,30.08,11.77c7.28,7.85,10.92,16.92,10.92,27.2l-15.43,7.31h-0.81V34.94
		c0-7.15-1.95-13.02-5.85-17.62c-4.71-5.57-11.02-8.36-18.92-8.36c-7.79,0-14.1,2.79-18.92,8.36c-3.9,4.44-5.85,10.31-5.85,17.62
		v56.03c0,7.2,1.95,13.07,5.85,17.62c4.82,5.58,11.12,8.36,18.92,8.36s14.1-2.79,18.92-8.36c3.9-4.49,5.85-9.83,5.85-16V67.42
		h-26.88v-0.81l3.82-8.12H4061.59z"/>
	<path class="st8" d="M4211.53,126.26v-0.82L4268.44,9.2h-56.11V8.36l3.93-8.36h74.99v0.71L4234,117.06h58.03v0.84l-3.93,8.36
		H4211.53z"/>
	<path class="st8" d="M4318.44,126.26V7.71l15.43-7.31h0.81v116.92h55.62v0.81l-3.82,8.12H4318.44z"/>
	<path class="st8" d="M4415.47,129.51V86.96c-8.5-1.41-15.81-5.12-21.92-11.12c-7.31-7.2-10.96-16.81-10.96-28.83V7.71l15.43-7.31
		h0.81v51.64c0,7.25,1.95,13.13,5.85,17.62c4.82,5.58,11.12,8.36,18.92,8.36c8.23,0,14.53-2.79,18.92-8.36
		c3.9-4.98,5.85-10.85,5.85-17.62V7.71l15.43-7.31h0.81v46.61c0,11.69-3.65,21.3-10.96,28.83c-5.9,6.06-13.21,9.77-21.92,11.12
		v35.24l-15.43,7.31H4415.47z"/>
	<g>
		<g>
			<path class="st8" d="M4190.1,0.4c0,0-14.52-0.25-20.13,17.46s3.95,32.46,6.24,37.99c2.29,5.52,2.29,5.52,2.29,5.52
				s6.75,15.67-1.94,29.87c0,0,5.9,14.92,2.07,31.74c0,0,22.86-8.98,24.72-36.63c0,0,2.11-19.77-12.04-37.83
				S4172.55,15.67,4190.1,0.4z"/>
			<path class="st8" d="M4097.44,0.4c0,0,14.52-0.25,20.13,17.46c5.61,17.71-3.95,32.46-6.24,37.99s-2.29,5.52-2.29,5.52
				s-6.75,15.67,1.94,29.87c0,0-5.9,14.92-2.07,31.74c0,0-22.86-8.98-24.72-36.63c0,0-2.11-19.77,12.04-37.83
				C4110.38,30.46,4114.99,15.67,4097.44,0.4z"/>
		</g>
		<path class="st6" d="M4168.42,88.72h-49.84v0.17c-2.02,1.21-3.59,9.1-3.59,18.66s1.56,17.44,3.59,18.66v0.17h49.84
			c2.28,0,4.13-8.43,4.13-18.83S4170.7,88.72,4168.42,88.72z"/>
	</g>
	<path class="st8" d="M3661.16,4614.32v-44.66c0-11.75,3.65-21.35,10.96-28.83c7.69-7.85,17.7-11.77,30.04-11.77
		s22.36,3.93,30.04,11.77c7.31,7.42,10.96,17.02,10.96,28.83v44.66c0,11.75-3.65,21.36-10.96,28.83
		c-7.69,7.85-17.7,11.77-30.04,11.77s-22.36-3.92-30.04-11.77C3664.82,4635.67,3661.16,4626.06,3661.16,4614.32z M3677.4,4620
		c0,7.25,1.95,13.13,5.85,17.62c4.82,5.58,11.12,8.36,18.92,8.36s14.1-2.79,18.92-8.36c3.9-4.49,5.85-10.37,5.85-17.62v-56.03
		c0-7.25-1.95-13.13-5.85-17.62c-4.82-5.57-11.12-8.36-18.92-8.36s-14.1,2.79-18.92,8.36c-3.9,4.49-5.85,10.37-5.85,17.62V4620z"/>
	<path class="st8" d="M3855.66,4587.52v26.8c0,11.75-3.65,21.36-10.96,28.83c-7.69,7.85-17.7,11.77-30.04,11.77
		s-22.36-3.92-30.04-11.77c-7.31-7.47-10.96-17.08-10.96-28.83v-44.66c0-11.75,3.65-21.35,10.96-28.83
		c7.69-7.85,17.7-11.77,30.04-11.77c12.77,0,22.8,3.93,30.08,11.77c7.28,7.85,10.92,16.92,10.92,27.2l-15.43,7.31h-0.81v-11.37
		c0-7.15-1.95-13.02-5.85-17.62c-4.71-5.57-11.02-8.36-18.92-8.36c-7.79,0-14.1,2.79-18.92,8.36c-3.9,4.44-5.85,10.31-5.85,17.62
		V4620c0,7.2,1.95,13.07,5.85,17.62c4.82,5.58,11.12,8.36,18.92,8.36s14.1-2.79,18.92-8.36c3.9-4.49,5.85-9.83,5.85-16v-25.17
		h-26.88v-0.81l3.82-8.12H3855.66z"/>
	<path class="st8" d="M4005.59,4655.29v-0.82l56.92-116.24h-56.11v-0.84l3.93-8.36h74.99v0.71l-57.26,116.35h58.03v0.84l-3.93,8.36
		H4005.59z"/>
	<path class="st8" d="M4112.5,4655.29v-118.55l15.43-7.31h0.81v116.92h55.62v0.81l-3.82,8.12H4112.5z"/>
	<path class="st8" d="M4209.53,4658.54v-42.55c-8.5-1.41-15.81-5.12-21.92-11.12c-7.31-7.2-10.96-16.81-10.96-28.83v-39.3
		l15.43-7.31h0.81v51.64c0,7.25,1.95,13.13,5.85,17.62c4.82,5.58,11.12,8.36,18.92,8.36c8.23,0,14.53-2.79,18.92-8.36
		c3.9-4.98,5.85-10.85,5.85-17.62v-44.33l15.43-7.31h0.81v46.61c0,11.69-3.65,21.3-10.96,28.83c-5.9,6.06-13.21,9.77-21.92,11.12
		v35.24l-15.43,7.31H4209.53z"/>
	<g>
		<g>
			<path class="st8" d="M3984.16,4529.44c0,0-14.52-0.25-20.13,17.46c-5.61,17.71,3.95,32.46,6.24,37.99
				c2.29,5.52,2.29,5.52,2.29,5.52s6.75,15.67-1.94,29.87c0,0,5.9,14.92,2.07,31.74c0,0,22.86-8.98,24.72-36.63
				c0,0,2.11-19.77-12.04-37.83C3971.22,4559.5,3966.61,4544.7,3984.16,4529.44z"/>
			<path class="st8" d="M3891.51,4529.44c0,0,14.52-0.25,20.13,17.46c5.61,17.71-3.95,32.46-6.24,37.99
				c-2.29,5.52-2.29,5.52-2.29,5.52s-6.75,15.67,1.94,29.87c0,0-5.9,14.92-2.07,31.74c0,0-22.86-8.98-24.72-36.63
				c0,0-2.11-19.77,12.04-37.83C3904.45,4559.5,3909.05,4544.7,3891.51,4529.44z"/>
		</g>
		<path class="st6" d="M3962.48,4617.75h-49.84v0.17c-2.03,1.21-3.59,9.1-3.59,18.66s1.56,17.44,3.59,18.66v0.17h49.84
			c2.28,0,4.13-8.43,4.13-18.83S3964.76,4617.75,3962.48,4617.75z"/>
	</g>
	<path d="M3661.16,5668.77v-44.66c0-11.75,3.65-21.35,10.96-28.83c7.69-7.85,17.7-11.77,30.04-11.77s22.36,3.93,30.04,11.77
		c7.31,7.42,10.96,17.02,10.96,28.83v44.66c0,11.75-3.65,21.36-10.96,28.83c-7.69,7.85-17.7,11.77-30.04,11.77
		s-22.36-3.92-30.04-11.77C3664.82,5690.12,3661.16,5680.52,3661.16,5668.77z M3677.4,5674.45c0,7.25,1.95,13.13,5.85,17.62
		c4.82,5.58,11.12,8.36,18.92,8.36s14.1-2.79,18.92-8.36c3.9-4.49,5.85-10.37,5.85-17.62v-56.03c0-7.25-1.95-13.13-5.85-17.62
		c-4.82-5.57-11.12-8.36-18.92-8.36s-14.1,2.79-18.92,8.36c-3.9,4.49-5.85,10.37-5.85,17.62V5674.45z"/>
	<path d="M3855.66,5641.97v26.8c0,11.75-3.65,21.36-10.96,28.83c-7.69,7.85-17.7,11.77-30.04,11.77s-22.36-3.92-30.04-11.77
		c-7.31-7.47-10.96-17.08-10.96-28.83v-44.66c0-11.75,3.65-21.35,10.96-28.83c7.69-7.85,17.7-11.77,30.04-11.77
		c12.77,0,22.8,3.93,30.08,11.77c7.28,7.85,10.92,16.92,10.92,27.2l-15.43,7.31h-0.81v-11.37c0-7.15-1.95-13.02-5.85-17.62
		c-4.71-5.57-11.02-8.36-18.92-8.36c-7.79,0-14.1,2.79-18.92,8.36c-3.9,4.44-5.85,10.31-5.85,17.62v56.03
		c0,7.2,1.95,13.07,5.85,17.62c4.82,5.58,11.12,8.36,18.92,8.36s14.1-2.79,18.92-8.36c3.9-4.49,5.85-9.83,5.85-16v-25.17h-26.88
		v-0.81l3.82-8.12H3855.66z"/>
	<path d="M4005.59,5709.74v-0.82l56.92-116.24h-56.11v-0.84l3.93-8.36h74.99v0.71l-57.26,116.35h58.03v0.84l-3.93,8.36H4005.59z"/>
	<path d="M4112.5,5709.74v-118.55l15.43-7.31h0.81v116.92h55.62v0.81l-3.82,8.12H4112.5z"/>
	<path d="M4209.53,5712.99v-42.55c-8.5-1.41-15.81-5.12-21.92-11.12c-7.31-7.2-10.96-16.81-10.96-28.83v-39.3l15.43-7.31h0.81v51.64
		c0,7.25,1.95,13.13,5.85,17.62c4.82,5.58,11.12,8.36,18.92,8.36c8.23,0,14.53-2.79,18.92-8.36c3.9-4.98,5.85-10.85,5.85-17.62
		v-44.33l15.43-7.31h0.81v46.61c0,11.69-3.65,21.3-10.96,28.83c-5.9,6.06-13.21,9.77-21.92,11.12v35.24l-15.43,7.31H4209.53z"/>
	<g>
		<g>
			<path class="st2" d="M3984.16,5583.89c0,0-14.52-0.25-20.13,17.46c-5.61,17.71,3.95,32.46,6.24,37.99
				c2.29,5.52,2.29,5.52,2.29,5.52s6.75,15.67-1.94,29.87c0,0,5.9,14.92,2.07,31.74c0,0,22.86-8.98,24.72-36.63
				c0,0,2.11-19.77-12.04-37.83C3971.22,5613.95,3966.61,5599.15,3984.16,5583.89z"/>
			<path class="st2" d="M3891.51,5583.89c0,0,14.52-0.25,20.13,17.46c5.61,17.71-3.95,32.46-6.24,37.99
				c-2.29,5.52-2.29,5.52-2.29,5.52s-6.75,15.67,1.94,29.87c0,0-5.9,14.92-2.07,31.74c0,0-22.86-8.98-24.72-36.63
				c0,0-2.11-19.77,12.04-37.83C3904.45,5613.95,3909.05,5599.15,3891.51,5583.89z"/>
		</g>
		<path class="st6" d="M3962.48,5672.21h-49.84v0.17c-2.03,1.21-3.59,9.1-3.59,18.66s1.56,17.44,3.59,18.66v0.17h49.84
			c2.28,0,4.13-8.43,4.13-18.83S3964.76,5672.21,3962.48,5672.21z"/>
	</g>
	<path d="M2567.23,5668.77v-44.66c0-11.75,3.65-21.35,10.96-28.83c7.69-7.85,17.7-11.77,30.04-11.77s22.36,3.93,30.04,11.77
		c7.31,7.42,10.96,17.02,10.96,28.83v44.66c0,11.75-3.65,21.36-10.96,28.83c-7.69,7.85-17.7,11.77-30.04,11.77
		s-22.36-3.92-30.04-11.77C2570.88,5690.12,2567.23,5680.52,2567.23,5668.77z M2583.47,5674.45c0,7.25,1.95,13.13,5.85,17.62
		c4.82,5.58,11.12,8.36,18.92,8.36s14.1-2.79,18.92-8.36c3.9-4.49,5.85-10.37,5.85-17.62v-56.03c0-7.25-1.95-13.13-5.85-17.62
		c-4.82-5.57-11.12-8.36-18.92-8.36s-14.1,2.79-18.92,8.36c-3.9,4.49-5.85,10.37-5.85,17.62V5674.45z"/>
	<path d="M2761.72,5641.97v26.8c0,11.75-3.65,21.36-10.96,28.83c-7.69,7.85-17.7,11.77-30.04,11.77s-22.36-3.92-30.04-11.77
		c-7.31-7.47-10.96-17.08-10.96-28.83v-44.66c0-11.75,3.65-21.35,10.96-28.83c7.69-7.85,17.7-11.77,30.04-11.77
		c12.77,0,22.8,3.93,30.08,11.77c7.28,7.85,10.92,16.92,10.92,27.2l-15.43,7.31h-0.81v-11.37c0-7.15-1.95-13.02-5.85-17.62
		c-4.71-5.57-11.02-8.36-18.92-8.36c-7.79,0-14.1,2.79-18.92,8.36c-3.9,4.44-5.85,10.31-5.85,17.62v56.03
		c0,7.2,1.95,13.07,5.85,17.62c4.82,5.58,11.12,8.36,18.92,8.36s14.1-2.79,18.92-8.36c3.9-4.49,5.85-9.83,5.85-16v-25.17h-26.88
		v-0.81l3.82-8.12H2761.72z"/>
	<path d="M2911.66,5709.74v-0.82l56.92-116.24h-56.11v-0.84l3.93-8.36h74.99v0.71l-57.26,116.35h58.03v0.84l-3.93,8.36H2911.66z"/>
	<path d="M3018.57,5709.74v-118.55l15.43-7.31h0.81v116.92h55.62v0.81l-3.82,8.12H3018.57z"/>
	<path d="M3115.6,5712.99v-42.55c-8.5-1.41-15.81-5.12-21.92-11.12c-7.31-7.2-10.96-16.81-10.96-28.83v-39.3l15.43-7.31h0.81v51.64
		c0,7.25,1.95,13.13,5.85,17.62c4.82,5.58,11.12,8.36,18.92,8.36c8.23,0,14.53-2.79,18.92-8.36c3.9-4.98,5.85-10.85,5.85-17.62
		v-44.33l15.43-7.31h0.81v46.61c0,11.69-3.65,21.3-10.96,28.83c-5.9,6.06-13.21,9.77-21.92,11.12v35.24l-15.43,7.31H3115.6z"/>
	<g>
		<g>
			<path class="st2" d="M2887.19,5583.89c0,0-14.11-0.25-19.56,17.46c-5.45,17.71,3.84,32.46,6.06,37.99
				c2.22,5.52,2.22,5.52,2.22,5.52s6.56,15.67-1.89,29.87c0,0,5.74,14.92,2.01,31.74c0,0,22.21-8.98,24.02-36.63
				c0,0,2.05-19.77-11.69-37.83C2874.62,5613.95,2870.15,5599.15,2887.19,5583.89z"/>
			<path class="st2" d="M2797.19,5583.89c0,0,14.11-0.25,19.56,17.46c5.45,17.71-3.84,32.46-6.06,37.99
				c-2.22,5.52-2.22,5.52-2.22,5.52s-6.56,15.67,1.89,29.87c0,0-5.74,14.92-2.01,31.74c0,0-22.21-8.98-24.02-36.63
				c0,0-2.05-19.77,11.69-37.83C2809.76,5613.95,2814.23,5599.15,2797.19,5583.89z"/>
		</g>
		<path class="st2" d="M2866.13,5672.21h-48.41v0.17c-1.97,1.21-3.49,9.1-3.49,18.66s1.52,17.44,3.49,18.66v0.17h48.41
			c2.22,0,4.01-8.43,4.01-18.83S2868.35,5672.21,2866.13,5672.21z"/>
	</g>
	<path d="M2572.23,4616.32v-44.66c0-11.75,3.65-21.35,10.96-28.83c7.69-7.85,17.7-11.77,30.04-11.77s22.36,3.93,30.04,11.77
		c7.31,7.42,10.96,17.02,10.96,28.83v44.66c0,11.75-3.65,21.36-10.96,28.83c-7.69,7.85-17.7,11.77-30.04,11.77
		s-22.36-3.92-30.04-11.77C2575.88,4637.67,2572.23,4628.06,2572.23,4616.32z M2588.47,4622c0,7.25,1.95,13.13,5.85,17.62
		c4.82,5.58,11.12,8.36,18.92,8.36s14.1-2.79,18.92-8.36c3.9-4.49,5.85-10.37,5.85-17.62v-56.03c0-7.25-1.95-13.13-5.85-17.62
		c-4.82-5.57-11.12-8.36-18.92-8.36s-14.1,2.79-18.92,8.36c-3.9,4.49-5.85,10.37-5.85,17.62V4622z"/>
	<path d="M2768.72,4589.52v26.8c0,11.75-3.65,21.36-10.96,28.83c-7.69,7.85-17.7,11.77-30.04,11.77s-22.36-3.92-30.04-11.77
		c-7.31-7.47-10.96-17.08-10.96-28.83v-44.66c0-11.75,3.65-21.35,10.96-28.83c7.69-7.85,17.7-11.77,30.04-11.77
		c12.77,0,22.8,3.93,30.08,11.77c7.28,7.85,10.92,16.92,10.92,27.2l-15.43,7.31h-0.81v-11.37c0-7.15-1.95-13.02-5.85-17.62
		c-4.71-5.57-11.02-8.36-18.92-8.36c-7.79,0-14.1,2.79-18.92,8.36c-3.9,4.44-5.85,10.31-5.85,17.62V4622
		c0,7.2,1.95,13.07,5.85,17.62c4.82,5.58,11.12,8.36,18.92,8.36s14.1-2.79,18.92-8.36c3.9-4.49,5.85-9.83,5.85-16v-25.17h-26.88
		v-0.81l3.82-8.12H2768.72z"/>
	<path d="M2911.66,4655.29v-0.8l55.27-112.88h-54.48v-0.81l3.82-8.12h72.82v0.69l-55.6,112.99h56.35v0.81l-3.82,8.12H2911.66z"/>
	<path d="M3018.57,4655.29v-118.55l15.43-7.31h0.81v116.92h55.62v0.81l-3.82,8.12H3018.57z"/>
	<path d="M3115.6,4658.54v-42.55c-8.5-1.41-15.81-5.12-21.92-11.12c-7.31-7.2-10.96-16.81-10.96-28.83v-39.3l15.43-7.31h0.81v51.64
		c0,7.25,1.95,13.13,5.85,17.62c4.82,5.58,11.12,8.36,18.92,8.36c8.23,0,14.53-2.79,18.92-8.36c3.9-4.98,5.85-10.85,5.85-17.62
		v-44.33l15.43-7.31h0.81v46.61c0,11.69-3.65,21.3-10.96,28.83c-5.9,6.06-13.21,9.77-21.92,11.12v35.24l-15.43,7.31H3115.6z"/>
	<g>
		<g>
			<path class="st2" d="M2888.03,4532.68c0,0-13.74-0.25-19.05,17.01c-5.31,17.26,3.74,31.63,5.9,37.01
				c2.16,5.38,2.16,5.38,2.16,5.38s6.39,15.27-1.84,29.1c0,0,5.59,14.53,1.96,30.92c0,0,21.63-8.75,23.4-35.69
				c0,0,1.99-19.26-11.39-36.85C2875.79,4561.97,2871.43,4547.55,2888.03,4532.68z"/>
			<path class="st2" d="M2800.35,4532.68c0,0,13.74-0.25,19.05,17.01c5.31,17.26-3.74,31.63-5.9,37.01
				c-2.16,5.38-2.16,5.38-2.16,5.38s-6.39,15.27,1.84,29.1c0,0-5.59,14.53-1.96,30.92c0,0-21.63-8.75-23.4-35.69
				c0,0-1.99-19.26,11.39-36.85C2812.59,4561.97,2816.95,4547.55,2800.35,4532.68z"/>
		</g>
		<path class="st2" d="M2867.51,4618.72h-47.17v0.16c-1.92,1.18-3.4,8.87-3.4,18.18s1.48,16.99,3.4,18.18v0.16h47.17
			c2.16,0,3.91-8.21,3.91-18.34C2871.43,4626.94,2869.67,4618.72,2867.51,4618.72z"/>
	</g>
	<rect x="4520.35" y="5161.58" class="st9" width="1000" height="1000"/>
	<path class="st5" d="M4739.48,5668.41v-44.66c0-11.75,3.65-21.35,10.96-28.83c7.69-7.85,17.7-11.77,30.04-11.77
		s22.36,3.93,30.04,11.77c7.31,7.42,10.96,17.02,10.96,28.83v44.66c0,11.75-3.65,21.36-10.96,28.83
		c-7.69,7.85-17.7,11.77-30.04,11.77s-22.36-3.92-30.04-11.77C4743.14,5689.77,4739.48,5680.16,4739.48,5668.41z M4755.72,5674.1
		c0,7.25,1.95,13.13,5.85,17.62c4.82,5.58,11.12,8.36,18.92,8.36s14.1-2.79,18.92-8.36c3.9-4.49,5.85-10.37,5.85-17.62v-56.03
		c0-7.25-1.95-13.13-5.85-17.62c-4.82-5.57-11.12-8.36-18.92-8.36s-14.1,2.79-18.92,8.36c-3.9,4.49-5.85,10.37-5.85,17.62V5674.1z"
		/>
	<path class="st5" d="M4933.98,5641.62v26.8c0,11.75-3.65,21.36-10.96,28.83c-7.69,7.85-17.7,11.77-30.04,11.77
		s-22.36-3.92-30.04-11.77c-7.31-7.47-10.96-17.08-10.96-28.83v-44.66c0-11.75,3.65-21.35,10.96-28.83
		c7.69-7.85,17.7-11.77,30.04-11.77c12.77,0,22.8,3.93,30.08,11.77c7.28,7.85,10.92,16.92,10.92,27.2l-15.43,7.31h-0.81v-11.37
		c0-7.15-1.95-13.02-5.85-17.62c-4.71-5.57-11.02-8.36-18.92-8.36c-7.79,0-14.1,2.79-18.92,8.36c-3.9,4.44-5.85,10.31-5.85,17.62
		v56.03c0,7.2,1.95,13.07,5.85,17.62c4.82,5.58,11.12,8.36,18.92,8.36s14.1-2.79,18.92-8.36c3.9-4.49,5.85-9.83,5.85-16v-25.17
		h-26.88v-0.81l3.82-8.12H4933.98z"/>
	<path class="st5" d="M5083.91,5709.39v-0.82l56.92-116.24h-56.11v-0.84l3.93-8.36h74.99v0.71l-57.26,116.35h58.03v0.84l-3.93,8.36
		H5083.91z"/>
	<path class="st5" d="M5190.83,5709.39v-118.55l15.43-7.31h0.81v116.92h55.62v0.81l-3.82,8.12H5190.83z"/>
	<path class="st5" d="M5287.86,5712.64v-42.55c-8.5-1.41-15.81-5.12-21.92-11.12c-7.31-7.2-10.96-16.81-10.96-28.83v-39.3
		l15.43-7.31h0.81v51.64c0,7.25,1.95,13.13,5.85,17.62c4.82,5.58,11.12,8.36,18.92,8.36c8.23,0,14.53-2.79,18.92-8.36
		c3.9-4.98,5.85-10.85,5.85-17.62v-44.33l15.43-7.31h0.81v46.61c0,11.69-3.65,21.3-10.96,28.83c-5.9,6.06-13.21,9.77-21.92,11.12
		v35.24l-15.43,7.31H5287.86z"/>
	<g>
		<g>
			<path class="st5" d="M5062.48,5583.53c0,0-14.52-0.25-20.13,17.46c-5.61,17.71,3.95,32.46,6.24,37.99s2.29,5.52,2.29,5.52
				s6.75,15.67-1.94,29.87c0,0,5.9,14.92,2.07,31.74c0,0,22.86-8.98,24.72-36.63c0,0,2.11-19.77-12.04-37.83
				S5044.94,5598.8,5062.48,5583.53z"/>
			<path class="st5" d="M4969.83,5583.53c0,0,14.52-0.25,20.13,17.46c5.61,17.71-3.95,32.46-6.24,37.99s-2.29,5.52-2.29,5.52
				s-6.75,15.67,1.94,29.87c0,0-5.9,14.92-2.07,31.74c0,0-22.86-8.98-24.72-36.63c0,0-2.11-19.77,12.04-37.83
				C4982.77,5613.59,4987.38,5598.8,4969.83,5583.53z"/>
		</g>
		<path class="st6" d="M5040.8,5671.85h-49.84v0.17c-2.02,1.21-3.59,9.1-3.59,18.66c0,9.56,1.56,17.44,3.59,18.66v0.17h49.84
			c2.28,0,4.13-8.43,4.13-18.83C5044.94,5680.28,5043.09,5671.85,5040.8,5671.85z"/>
	</g>
</g>
<g id="Layer_2">
</g>
<g id="Layer_3">
</g>
</svg>
